<?xml version="1.0" standalone="no"?>
<!DOCTYPE svg PUBLIC "-//W3C//DTD SVG 20010904//EN"
 "http://www.w3.org/TR/2001/REC-SVG-20010904/DTD/svg10.dtd">
<svg version="1.0" xmlns="http://www.w3.org/2000/svg"
 width="512.000000pt" height="512.000000pt" viewBox="0 0 512.000000 512.000000"
 preserveAspectRatio="xMidYMid meet">

<g transform="translate(0.000000,512.000000) scale(0.100000,-0.100000)"
fill="#b21f1f" stroke="none">
<path d="M2445 5028 c-27 -5 -86 -27 -131 -48 -163 -79 -280 -238 -306 -418
l-12 -81 -640 -3 -641 -3 -50 -25 c-64 -31 -124 -91 -155 -155 -23 -46 -25
-63 -28 -227 l-4 -177 26 -26 c24 -24 29 -25 163 -25 l138 0 112 -1749 111
-1750 27 -60 c32 -71 102 -142 173 -174 l47 -22 1285 0 1285 0 47 22 c71 32
141 103 173 174 l27 60 111 1750 112 1749 138 0 c135 0 139 1 163 26 l26 25
-4 177 -3 177 -34 63 c-37 69 -79 109 -151 144 l-45 23 -641 3 -640 3 -12 81
c-46 315 -348 526 -667 466z m279 -186 c36 -17 85 -49 110 -73 56 -50 113
-162 122 -236 l7 -53 -403 0 -403 0 7 53 c9 69 55 165 105 220 44 47 134 101
197 117 72 18 187 5 258 -28z m1682 -548 c60 -44 69 -67 72 -185 l4 -109
-1921 0 -1921 0 0 94 c0 102 9 137 43 175 49 53 -55 50 1889 48 l1807 -2 27
-21z m-3122 -476 c3 -13 10 -138 16 -278 6 -140 13 -274 16 -297 l5 -43 74 0
c41 0 76 3 78 8 2 4 -3 148 -12 320 l-16 312 200 -2 200 -3 17 -315 c9 -173
17 -316 17 -317 2 -7 150 -2 154 5 3 4 -3 148 -12 320 l-16 312 237 0 238 0 0
-320 0 -320 80 0 80 0 0 320 0 320 238 0 237 0 -16 -312 c-9 -172 -14 -316
-12 -320 2 -5 37 -8 78 -8 l74 0 5 43 c3 23 10 157 16 297 6 140 13 265 16
278 4 22 5 22 202 22 l198 0 -4 -62 c-17 -306 -28 -564 -25 -570 2 -5 37 -8
78 -8 l74 0 5 43 c3 23 10 157 16 297 6 140 13 265 16 278 4 22 7 22 159 22
l155 0 0 -47 c-1 -27 -49 -806 -109 -1733 -119 -1866 -106 -1737 -184 -1788
-31 -21 -55 -27 -108 -30 l-68 -4 5 68 c7 102 24 528 24 596 l0 58 -78 0 -79
0 -12 -317 c-6 -175 -14 -337 -17 -361 l-5 -42 -199 0 -199 0 5 68 c7 100 24
526 24 594 l0 58 -78 0 -79 0 -12 -317 c-6 -175 -14 -337 -17 -361 l-5 -42
-160 0 -159 0 0 360 0 360 -80 0 -80 0 0 -360 0 -360 -159 0 -160 0 -5 42 c-5
45 -26 548 -26 631 l0 47 -80 0 -80 0 0 -65 c0 -70 17 -476 24 -587 l5 -68
-199 0 -199 0 -5 43 c-5 44 -26 547 -26 630 l0 47 -80 0 -80 0 0 -65 c0 -70
17 -477 24 -589 l5 -68 -68 4 c-53 3 -77 9 -108 30 -78 52 -65 -78 -184 1788
-60 927 -109 1706 -109 1733 l0 47 155 0 c152 0 155 0 159 -22z"/>
<path d="M1305 2695 l-25 -24 0 -231 0 -231 25 -24 c21 -22 33 -25 95 -25 62
0 74 -3 95 -25 16 -15 25 -36 25 -55 0 -19 -9 -40 -25 -55 -21 -22 -33 -25
-95 -25 -62 0 -74 -3 -95 -25 l-25 -24 0 -231 0 -231 25 -24 24 -25 1231 0
1231 0 24 25 25 24 0 231 0 231 -25 24 c-21 22 -33 25 -95 25 -62 0 -74 3 -95
25 -16 15 -25 36 -25 55 0 19 9 40 25 55 21 22 33 25 95 25 62 0 74 3 95 25
l25 24 0 231 0 231 -25 24 -24 25 -1231 0 -1231 0 -24 -25z m1175 -615 l0
-480 -520 0 -520 0 0 120 c0 109 2 120 18 120 48 0 113 34 155 80 90 100 90
220 0 320 -42 46 -107 80 -155 80 -16 0 -18 11 -18 120 l0 120 520 0 520 0 0
-480z m1200 360 c0 -104 -2 -120 -16 -120 -108 0 -224 -125 -224 -240 0 -115
116 -240 224 -240 14 0 16 -16 16 -120 l0 -120 -520 0 -520 0 0 480 0 480 520
0 520 0 0 -120z"/>
</g>
</svg>
