<svg xmlns="http://www.w3.org/2000/svg" width="435.001" height="511.787" viewBox="0 0 435.001 511.787">
  <path id="DMS" d="M336.64,290.5c6.13,3.87,13.03,11.56,21.55,16.42,11.98,6.85,34.18-2.6,45.54,14.3,6.62,9.83,6.94,17.56,7.42,25.19.54,8.22,1.97,15.8,10.4,26.93,13.94,18.44,16.84,30.71,9.65,43.5-4.9,8.72-15.2,13.56-17.6,19.08-5.06,11.75.54,20.6-6.4,34.3a36.52,36.52,0,0,1-22.18,18.95c-8.36,2.7-16.76-1.2-23.45,1.62-11.77,4.94-20.44,16.43-29.81,19.34a36.047,36.047,0,0,1-21.61,0c-9.35-2.91-18.04-14.38-29.81-19.34-6.71-2.82-15.09,1.08-23.45-1.62a36.52,36.52,0,0,1-22.18-18.95c-6.96-13.7-1.33-22.55-6.42-34.3-2.4-5.52-12.7-10.36-17.6-19.09-7.18-12.78-4.27-25.05,9.65-43.49,8.43-11.14,9.86-18.71,10.4-26.93.5-7.63.8-15.36,7.43-25.19,11.35-16.9,33.56-7.45,45.53-14.3,8.52-4.86,15.41-12.55,21.55-16.42C315.76,283.85,326.14,283.83,336.64,290.5ZM239.01,46.25l81.35,85.51-82.72,1.37,1.37-86.88ZM71.57,389.57H174.92V374.04H71.57Zm0-59.64H202.45a60.635,60.635,0,0,1,5.15-15.53H71.57Zm0-59.64H282.4a71.816,71.816,0,0,1,6.94-5.07c1.09-.69,2.2-1.37,3.33-2.01v-8.45H71.57Zm0-178.89h72.82V75.86H71.57V91.4Zm0,59.63H174.92V135.5H71.57v15.53Zm0,59.63H292.38V195.13H71.57Zm292.67-64.69s-4.12-9.38-9.86-14.98L234.55,4.99A13.4,13.4,0,0,0,224.1,0H24.35A24.322,24.322,0,0,0,0,24.35V441.08a24.345,24.345,0,0,0,24.35,24.34H201.89a100.35,100.35,0,0,1-.96-15.2c-2.31-1.98-4.73-4.09-7.13-6.55H21.75V21.63H213.19v122.3a13.659,13.659,0,0,0,13.66,13.66H342.49V259.81a68.478,68.478,0,0,1,10.18,5.41l2.15,1.51a114.808,114.808,0,0,1,9.42,7.46V145.97ZM301.26,385.61l14.59,13.89,25.12-25.53c2.48-2.52,4.04-4.54,7.11-1.39l9.95,10.19c3.26,3.23,3.1,5.12.02,8.13l-36.52,35.85c-6.49,6.36-5.36,6.76-11.95.22l-25.06-24.93c-1.38-1.48-1.23-2.99.28-4.47l11.54-11.98C298.07,383.77,299.46,383.89,301.26,385.61Zm19.36-48.88a63.675,63.675,0,1,1-63.67,63.68A63.671,63.671,0,0,1,320.62,336.73Z" fill="#b21f1f" fill-rule="evenodd"/>
</svg>
