<?xml version="1.0" standalone="no"?>
<!DOCTYPE svg PUBLIC "-//W3C//DTD SVG 20010904//EN"
 "http://www.w3.org/TR/2001/REC-SVG-20010904/DTD/svg10.dtd">
<svg version="1.0" xmlns="http://www.w3.org/2000/svg"
 width="512.000000pt" height="512.000000pt" viewBox="0 0 512.000000 512.000000"
 preserveAspectRatio="xMidYMid meet">

<g transform="translate(0.000000,512.000000) scale(0.100000,-0.100000)"
fill="#b21f1f" stroke="none">
<path d="M1266 4866 c-105 -44 -206 -148 -248 -256 -32 -82 -36 -214 -10 -317
24 -95 82 -216 154 -320 28 -40 49 -75 47 -76 -2 -2 -22 -9 -44 -15 -23 -6
-59 -27 -82 -47 -148 -126 -116 -363 60 -452 l38 -19 -81 -103 c-239 -302
-258 -338 -204 -380 55 -43 79 -30 171 93 42 55 128 165 190 244 l113 142 520
0 520 0 113 -142 c379 -478 701 -945 886 -1287 109 -201 197 -423 215 -538 l6
-42 -512 -3 -513 -3 -57 -28 c-187 -92 -238 -326 -107 -489 l30 -38 -30 -37
c-73 -92 -93 -214 -53 -321 l20 -52 -732 0 c-838 0 -806 -3 -991 90 -196 98
-343 241 -435 425 -72 143 -92 229 -93 395 -1 122 2 143 27 220 83 250 219
505 482 901 79 120 144 227 144 238 0 32 -44 71 -79 71 -36 0 -49 -15 -178
-207 -273 -405 -460 -763 -523 -998 -67 -250 -11 -558 145 -796 67 -103 231
-261 339 -328 93 -58 210 -109 316 -138 61 -17 158 -18 1655 -18 l1590 0 50
24 c64 32 124 93 155 156 19 40 24 67 24 130 1 91 -18 145 -74 208 l-33 38 29
30 c22 23 30 27 40 17 6 -7 69 -114 140 -238 140 -245 187 -306 267 -341 79
-35 192 -34 269 4 132 65 202 213 168 355 -13 54 -387 716 -417 739 -44 34
-116 -1 -116 -54 0 -21 58 -131 193 -364 212 -367 218 -381 182 -462 -45 -101
-178 -129 -257 -54 -48 45 -706 1189 -712 1238 -7 53 12 102 57 143 45 41 96
53 150 37 60 -18 84 -43 155 -166 37 -63 73 -122 82 -130 8 -8 30 -15 48 -15
42 0 79 41 72 80 -8 39 -135 251 -175 293 -120 124 -325 124 -449 0 -62 -62
-87 -124 -87 -218 -1 -86 13 -124 99 -273 l36 -62 -95 0 -94 0 -7 43 c-60 387
-456 1060 -1109 1887 l-67 84 44 23 c25 12 63 43 85 68 22 25 48 45 59 45 42
0 141 -61 200 -123 78 -81 110 -147 167 -341 89 -303 196 -446 276 -366 32 32
25 72 -25 145 -33 49 -55 99 -86 198 -91 294 -112 341 -200 447 -61 74 -176
151 -260 175 -63 18 -66 20 -76 59 -6 23 -14 50 -18 62 -6 18 1 24 46 43 127
55 216 37 382 -76 128 -87 194 -120 259 -129 38 -5 49 -3 67 15 26 26 28 82 4
104 -10 8 -40 23 -68 32 -27 10 -106 55 -175 101 -69 46 -152 93 -185 105
-127 45 -251 34 -381 -32 -62 -32 -83 -38 -110 -33 -19 3 -34 9 -34 12 0 3 22
37 49 76 64 94 111 183 111 213 0 30 -42 73 -70 73 -37 0 -59 -19 -86 -73 -40
-78 -101 -165 -162 -229 l-55 -58 -94 0 c-85 0 -94 2 -89 18 11 34 37 169 47
241 12 87 2 123 -40 141 -35 14 -78 -1 -91 -32 -5 -13 -16 -71 -25 -129 -9
-58 -24 -135 -33 -170 l-17 -64 -125 0 -125 0 -17 64 c-9 35 -24 112 -33 170
-9 58 -20 116 -25 129 -13 31 -56 46 -91 32 -43 -18 -51 -50 -39 -144 11 -78
35 -202 46 -238 5 -16 -4 -18 -89 -18 l-94 0 -55 58 c-102 107 -190 261 -218
381 -20 83 -9 187 26 250 47 87 134 151 205 151 18 0 62 -15 98 -32 58 -29 76
-33 146 -33 69 0 90 4 154 34 90 40 145 39 236 -5 51 -25 72 -29 140 -29 71 0
88 4 148 34 57 28 76 33 114 28 83 -9 172 -94 213 -204 24 -65 41 -83 82 -83
111 0 78 181 -58 318 -87 87 -154 117 -259 117 -70 -1 -88 -5 -142 -33 -78
-40 -113 -40 -199 1 -63 29 -78 32 -164 32 -86 0 -101 -3 -164 -32 -85 -41
-120 -41 -199 -1 -87 44 -178 49 -261 14z m1309 -1130 c68 -29 88 -130 36
-188 l-29 -33 -692 0 -692 0 -29 33 c-51 57 -33 158 34 187 48 21 1322 22
1372 1z m1474 -2549 c13 -6 44 -47 69 -89 l45 -78 -17 -45 c-21 -53 -62 -90
-116 -105 -27 -7 -263 -10 -717 -8 l-678 3 -37 23 c-20 13 -46 38 -58 57 -26
42 -29 119 -6 163 17 34 69 77 101 85 11 2 328 5 705 6 526 0 691 -2 709 -12z
m32 -500 c39 -26 79 -97 79 -143 0 -51 -40 -115 -90 -141 l-44 -23 -702 2
c-692 3 -703 3 -730 24 -82 61 -100 165 -44 244 44 62 17 60 791 60 l706 0 34
-23z"/>
<path d="M1460 2560 c-30 -30 -27 -83 6 -109 25 -19 40 -21 191 -21 178 0 213
-8 266 -58 25 -24 57 -72 57 -86 0 -3 -112 -6 -249 -8 -228 -3 -251 -5 -270
-22 -27 -25 -28 -79 -1 -106 19 -19 33 -20 270 -20 138 0 250 -2 250 -5 0 -19
-35 -68 -70 -97 -54 -47 -98 -58 -224 -58 -120 0 -156 -12 -181 -60 -8 -16
-15 -47 -15 -69 0 -37 17 -62 236 -338 130 -164 245 -306 256 -315 47 -41 118
-8 118 55 0 27 -35 76 -215 302 l-214 270 93 6 c142 10 237 60 312 164 18 26
40 69 49 96 l17 49 79 0 c92 0 119 17 119 73 0 54 -28 71 -120 75 l-78 4 -21
59 c-12 32 -26 61 -31 64 -28 18 0 25 94 25 89 0 107 3 130 21 33 26 36 79 6
109 -19 19 -33 20 -430 20 -397 0 -411 -1 -430 -20z"/>
</g>
</svg>
