<?xml version="1.0" encoding="UTF-8"?>
<svg version="1.1" xmlns="http://www.w3.org/2000/svg" width="512" height="512">
<path d="M0 0 C1.34694717 -0.00462419 2.69388927 -0.01098716 4.04082108 -0.01890898 C7.69502596 -0.0354177 11.34880643 -0.02744159 15.0030117 -0.0149641 C18.96219963 -0.00583915 22.92131924 -0.01991988 26.88049316 -0.03088379 C34.61792033 -0.04859488 42.35519159 -0.04486228 50.09262466 -0.03323323 C56.38553386 -0.02416983 62.67839961 -0.02298742 68.97131348 -0.02732849 C69.86971805 -0.02794142 70.76812262 -0.02855436 71.69375157 -0.02918586 C73.51930461 -0.03046487 75.34485763 -0.03176172 77.17041063 -0.03307623 C94.25613358 -0.04446032 111.34177044 -0.03140249 128.42747927 -0.00987476 C143.06204749 0.00799424 157.69648876 0.00488952 172.33105469 -0.0135498 C189.35901857 -0.03499498 206.38690716 -0.04336188 223.41488266 -0.03110075 C225.23341623 -0.02982666 227.05194981 -0.02856918 228.8704834 -0.02732849 C229.76504785 -0.02671139 230.6596123 -0.02609429 231.58128476 -0.02545848 C237.86072691 -0.02201651 244.14012097 -0.02780897 250.41955566 -0.0372467 C258.08057378 -0.0485087 265.74142813 -0.04533888 273.40242767 -0.02412373 C277.30514529 -0.01366947 281.20759068 -0.0093943 285.11030579 -0.02272034 C288.69310002 -0.03476823 292.27537345 -0.02788162 295.8581214 -0.00681013 C297.74614012 -0.0003284 299.63419593 -0.01316842 301.52217484 -0.02703905 C313.18325582 0.07816453 324.69507925 2.68046191 335.10839844 8.07043457 C335.76710938 8.40631592 336.42582031 8.74219727 337.10449219 9.08825684 C344.07692615 12.83712243 349.45792346 17.84868504 354.92089844 23.50793457 C355.65824219 24.21434082 356.39558594 24.92074707 357.15527344 25.64855957 C361.4365605 29.99622318 364.38769585 34.75134132 367.17089844 40.13293457 C367.6470459 41.0362854 367.6470459 41.0362854 368.1328125 41.95788574 C374.48628697 54.96714249 375.6015165 67.86497904 375.42089844 82.07043457 C375.4153595 82.9304306 375.40982056 83.79042664 375.40411377 84.67648315 C375.12524235 122.10403106 368.90169997 158.96603464 360.87011719 195.42980957 C360.58303894 196.73733531 360.58303894 196.73733531 360.29016113 198.07127571 C355.49514475 219.85749429 350.13115053 241.50043862 344.74908447 263.14752197 C339.54912563 284.06505482 334.48318559 304.99202629 329.97167969 326.07043457 C329.78821991 326.92543486 329.60476013 327.78043514 329.41574097 328.66134453 C324.13382784 353.36376637 320.0963356 377.97198747 317.75292969 403.12902832 C317.5729114 405.02258442 317.39245291 406.91609873 317.21154785 408.80957031 C316.77628006 413.37522821 316.34688597 417.94140185 315.92089844 422.50793457 C316.48227823 422.5042474 317.04365803 422.50056023 317.62204933 422.49676132 C331.29353553 422.40835149 344.96497152 422.34245198 358.63668251 422.30068588 C365.24829382 422.27980906 371.85969883 422.25148891 378.47119141 422.20617676 C384.85135298 422.16272356 391.2313161 422.13879818 397.61161423 422.1284256 C400.0460968 422.12103338 402.48056847 422.10659823 404.91496658 422.08501434 C408.32424668 422.05598842 411.73270612 422.05197838 415.14208984 422.05383301 C416.14909943 422.0394519 417.15610901 422.0250708 418.19363403 422.01025391 C424.10046427 422.04503594 427.40568869 422.60483136 431.92089844 426.50793457 C435.33668078 430.62420505 435.4284942 434.72760994 435.35839844 439.88293457 C435.349375 440.67876953 435.34035156 441.47460449 435.33105469 442.29455566 C434.76220576 462.09760898 425.9217983 478.99261505 411.92089844 492.50793457 C411.21449219 493.24527832 410.50808594 493.98262207 409.78027344 494.74230957 C405.43260983 499.02359664 400.67749169 501.97473199 395.29589844 504.75793457 C394.39254761 505.23408203 394.39254761 505.23408203 393.47094727 505.71984863 C382.11584124 511.26546724 370.34557656 513.10773208 357.84179688 513.01586914 C356.49484971 513.02049333 355.14790761 513.0268563 353.8009758 513.03477812 C350.14677091 513.05128684 346.49299044 513.04331073 342.83878517 513.03083324 C338.87959724 513.02170829 334.92047764 513.03578902 330.96130371 513.04675293 C323.22387654 513.06446402 315.48660529 513.06073142 307.74917221 513.04910237 C301.45626301 513.04003897 295.16339726 513.03885656 288.8704834 513.04319763 C287.97207883 513.04381056 287.07367425 513.0444235 286.1480453 513.045055 C284.32249227 513.04633401 282.49693925 513.04763086 280.67138624 513.04894537 C263.58566329 513.06032946 246.50002643 513.04727163 229.41431761 513.0257439 C214.77974939 513.0078749 200.14530812 513.01097962 185.51074219 513.02941895 C168.4827783 513.05086412 151.45488972 513.05923102 134.42691422 513.04696989 C132.60838065 513.0456958 130.78984707 513.04443832 128.97131348 513.04319763 C128.07674903 513.04258053 127.18218458 513.04196343 126.26051211 513.04132763 C119.98106997 513.03788565 113.70167591 513.04367811 107.42224121 513.05311584 C99.7612231 513.06437784 92.10036875 513.06120802 84.4393692 513.03999287 C80.53665158 513.02953861 76.6342062 513.02526344 72.73149109 513.03858948 C69.14869686 513.05063737 65.56642343 513.04375076 61.98367548 513.02267927 C60.09565675 513.01619754 58.20760094 513.02903756 56.31962204 513.04290819 C44.65854106 512.93770461 33.14671762 510.33540723 22.73339844 504.94543457 C21.74533203 504.44161255 21.74533203 504.44161255 20.73730469 503.9276123 C13.76487073 500.17874671 8.38387341 495.1671841 2.92089844 489.50793457 C1.81488281 488.4483252 1.81488281 488.4483252 0.68652344 487.36730957 C-3.61396226 483.00014967 -6.54887399 478.23255045 -9.32910156 472.82043457 C-9.6465332 472.20982178 -9.96396484 471.59920898 -10.29101562 470.97009277 C-16.6112438 457.96245176 -17.75350128 445.69099976 -17.57910156 431.50793457 C-17.57356262 430.62176453 -17.56802368 429.73559448 -17.56231689 428.8225708 C-17.2899149 391.21014159 -11.09562187 354.21255752 -3.02441406 317.56652832 C-2.83290709 316.6942371 -2.64140011 315.82194588 -2.44408989 314.92322159 C1.72389794 295.98509476 6.33192103 277.16257497 11.00485229 258.34390259 C25.36049736 200.59430962 25.36049736 200.59430962 36.35839844 142.13293457 C36.53071487 141.05835495 36.53071487 141.05835495 36.70651245 139.96206665 C39.28971291 123.58137335 40.50304988 107.02089774 41.92089844 90.50793457 C41.07882874 90.51346533 41.07882874 90.51346533 40.21974754 90.51910782 C26.54826135 90.60751765 12.87682536 90.67341716 -0.79488564 90.71518326 C-7.40649694 90.73606008 -14.01790195 90.76438023 -20.62939453 90.80969238 C-27.00955611 90.85314558 -33.38951922 90.87707096 -39.76981735 90.88744354 C-42.20429992 90.89483576 -44.6387716 90.90927091 -47.07316971 90.9308548 C-50.4824498 90.95988072 -53.89090924 90.96389076 -57.30029297 90.96203613 C-58.30730255 90.97641724 -59.31431213 90.99079834 -60.35183716 91.00561523 C-66.25951151 90.97082823 -69.56174295 90.40883037 -74.07910156 86.50793457 C-77.7029191 82.20991842 -77.58505434 77.94665133 -77.51660156 72.57043457 C-77.50757812 71.72505127 -77.49855469 70.87966797 -77.48925781 70.00866699 C-76.95841944 50.53906383 -67.81429118 33.76675923 -54.07910156 20.50793457 C-53.37269531 19.77059082 -52.66628906 19.03324707 -51.93847656 18.27355957 C-47.59081295 13.99227251 -42.83569482 11.04113715 -37.45410156 8.25793457 C-36.85186768 7.94050293 -36.24963379 7.62307129 -35.62915039 7.29602051 C-24.27404436 1.7504019 -12.50377968 -0.09186294 0 0 Z M58.92089844 30.50793457 C59.33535217 31.26021332 59.74980591 32.01249207 60.17681885 32.78756714 C60.71917175 33.77600616 61.26152466 34.76444519 61.8203125 35.78283691 C62.35851624 36.76199066 62.89671997 37.74114441 63.45123291 38.74996948 C65.08253002 41.81125137 66.44662476 44.88777079 67.67089844 48.13293457 C68.05761719 49.1358252 68.44433594 50.13871582 68.84277344 51.17199707 C72.14178447 61.37980656 72.3206969 71.07330266 72.29589844 81.69543457 C72.29535461 82.57041595 72.29481079 83.44539734 72.29425049 84.34689331 C72.18809724 121.89839162 65.92743021 158.84921811 57.87011719 195.42980957 C57.67873169 196.3014934 57.48734619 197.17317722 57.29016113 198.07127571 C52.49514475 219.85749429 47.13115053 241.50043862 41.74908447 263.14752197 C36.55262097 284.05099433 31.48882425 304.9642758 26.97558594 326.02746582 C26.79239304 326.87953047 26.60920013 327.73159512 26.42045593 328.6094799 C19.23681998 362.14007641 13.80464361 395.83351301 13.48339844 430.19543457 C13.47109192 430.93568878 13.4587854 431.67594299 13.44610596 432.43862915 C13.24532348 446.78415613 16.19967103 458.23034455 26.14355469 468.89074707 C36.93371107 479.25340122 47.82437984 482.02146159 62.35839844 481.78527832 C74.13397879 481.29946312 83.68704175 475.13365828 91.67089844 466.82043457 C99.13522318 458.02969671 101.49047171 449.37753114 102.84619141 438.14489746 C103.41793045 433.62982697 103.95711089 430.14226229 106.92089844 426.50793457 C111.01270387 423.46272556 114.04286262 423.12750685 119.08992004 423.10920715 C119.80064673 423.10256033 120.51137341 423.0959135 121.24363726 423.08906525 C123.61903306 423.07045086 125.99392447 423.07303941 128.36938477 423.07556152 C130.07454133 423.06654339 131.77969139 423.05621604 133.48483276 423.04467773 C138.11043932 423.01708761 142.73592293 423.00782048 147.36160111 423.00182366 C152.19698351 422.99244525 157.03227389 422.96624228 161.86759949 422.94181824 C171.02244229 422.89813491 180.17726725 422.86959919 189.33218259 422.84649485 C199.75536957 422.81945303 210.17846406 422.77554088 220.60158503 422.73020613 C242.04130643 422.63733358 263.48105551 422.56566477 284.92089844 422.50793457 C285.00032181 421.53768845 285.07974518 420.56744232 285.16157532 419.5677948 C285.46468514 415.8776906 285.77290695 412.1880265 286.08247375 408.49845886 C286.21436635 406.91847155 286.34497401 405.33837631 286.47413635 403.75816345 C290.78136381 351.13116066 303.58504925 300.13115171 316.26464844 249.01965332 C336.80374084 166.90403594 336.80374084 166.90403594 344.35839844 82.82043457 C344.37070496 82.08018036 344.38301147 81.33992615 344.39569092 80.57723999 C344.59647339 66.23171301 341.64212585 54.78552459 331.69824219 44.12512207 C315.94461709 28.9956501 296.75648018 30.2126424 276.32202148 30.28088379 C273.94574997 30.28144868 271.5694781 30.28112982 269.19320679 30.27999878 C262.77472887 30.27942731 256.35632642 30.29114824 249.93786597 30.30514669 C243.89991029 30.31738121 237.86194821 30.31839653 231.82398222 30.32045044 C219.873933 30.32481499 207.92391127 30.33809022 195.97387695 30.35705566 C184.37361792 30.37544671 172.77336639 30.38958738 161.1730957 30.39807129 C160.09841991 30.39885946 160.09841991 30.39885946 159.00203349 30.39966355 C155.40739062 30.40227385 151.81274769 30.40480121 148.21810472 30.40728736 C118.45235041 30.42798119 88.68662696 30.4633226 58.92089844 30.50793457 Z M-38.07910156 48.50793457 C-40.05910156 52.46793457 -42.03910156 56.42793457 -44.07910156 60.50793457 C-16.35910156 60.50793457 11.36089844 60.50793457 39.92089844 60.50793457 C32.28276563 45.23166895 25.91538086 38.78208911 10.92089844 32.50793457 C-7.48487252 27.15398942 -25.9699571 34.34252029 -38.07910156 48.50793457 Z M131.92089844 452.50793457 C129.94089844 458.11793457 127.96089844 463.72793457 125.92089844 469.50793457 C123.65209911 473.93575262 121.43155879 478.23684078 118.92089844 482.50793457 C149.40158441 482.5536181 179.88226408 482.58898399 210.36297629 482.61006523 C213.96634949 482.61256646 217.56972261 482.61515513 221.1730957 482.61779785 C221.89042383 482.61832247 222.60775195 482.61884709 223.34681729 482.61938761 C234.94222725 482.62807616 246.53761727 482.64383755 258.13301542 482.66224016 C270.04227764 482.68098243 281.95152945 482.69206042 293.86080581 482.69611156 C300.54528798 482.69860294 307.22972222 482.70481607 313.91419029 482.71939468 C320.21206051 482.73301823 326.50986715 482.73714756 332.8077507 482.73414993 C335.11308831 482.73469796 337.41842815 482.73864683 339.72375298 482.74634552 C359.95407578 482.81056381 377.16574478 482.73263772 392.72167969 467.95324707 C396.82147904 463.39467798 399.98041451 458.32938635 401.92089844 452.50793457 C312.82089844 452.50793457 223.72089844 452.50793457 131.92089844 452.50793457 Z " fill="#b3220d" transform="translate(77.0791015625,-0.5079345703125)"/>
<path d="M0 0 C0.77999723 -0.00538554 1.55999446 -0.01077108 2.36362797 -0.01631981 C4.97378602 -0.0306121 7.58343783 -0.02349264 10.19361877 -0.01637268 C12.06637479 -0.02207559 13.93912734 -0.02903954 15.81187439 -0.03717041 C20.89657981 -0.05512568 25.98111287 -0.05392897 31.06584048 -0.04822803 C35.31047914 -0.04513961 39.55508452 -0.05122476 43.79971844 -0.05726677 C53.81304535 -0.07131816 63.82628696 -0.06974558 73.83961487 -0.05836487 C84.17059087 -0.04688262 94.50130731 -0.06095978 104.8322491 -0.08776134 C113.70202795 -0.10991084 122.57172527 -0.11655742 131.44152981 -0.11068493 C136.7390925 -0.10731241 142.0364888 -0.10975007 147.33402824 -0.12693596 C152.31553508 -0.14239102 157.29665709 -0.13846546 162.27814865 -0.11963081 C164.10588443 -0.11594096 165.93364864 -0.11906492 167.76135826 -0.1295166 C170.25769122 -0.14270138 172.75274546 -0.13120214 175.24902344 -0.11352539 C175.97130691 -0.1231304 176.69359039 -0.1327354 177.43776125 -0.14263147 C182.46745859 -0.06941352 185.30037484 1.25436854 189.18800354 4.38768005 C192.29951384 8.25024456 193.33797585 12.46671375 193.18800354 17.38768005 C191.58783633 22.63267257 189.30448347 25.79895396 185.18800354 29.38768005 C182.16894697 30.89720834 179.04866514 30.53568379 175.73677063 30.53485107 C174.95933667 30.53852776 174.18190272 30.54220445 173.38091016 30.54599255 C170.76158835 30.55705372 168.14230618 30.56087734 165.52296448 30.56468201 C163.65065382 30.57094483 161.77834441 30.57759146 159.90603638 30.58459473 C154.8088114 30.60202146 149.71159581 30.61256107 144.61434841 30.62080026 C141.43126957 30.62594693 138.24819366 30.63202281 135.06511688 30.63831139 C125.11041145 30.65736824 115.15571347 30.67159825 105.2009933 30.67992336 C93.7018434 30.68969821 82.20288588 30.71602221 70.70380378 30.75642425 C61.82136359 30.78656396 52.93897861 30.8013902 44.05648828 30.80470437 C38.74879701 30.80705733 33.44131113 30.81604975 28.13367462 30.84116554 C23.13992892 30.86441367 18.14652432 30.86869259 13.15273857 30.85840416 C11.32015538 30.85790789 9.48755559 30.86425504 7.65502357 30.87796021 C5.15199612 30.89563193 2.65019902 30.88859682 0.14717102 30.87542725 C-0.57715882 30.88639649 -1.30148865 30.89736574 -2.04776788 30.90866739 C-7.08618526 30.84471551 -9.92255289 29.53455297 -13.81199646 26.38768005 C-17.86830044 21.16508148 -17.5859719 15.73427863 -16.81199646 9.38768005 C-13.18611225 1.73303562 -8.08144523 -0.06703782 0 0 Z " fill="#b3220d" transform="translate(153.81199645996094,299.61231994628906)"/>
<path d="M0 0 C0.77743396 -0.00367669 1.55486791 -0.00735338 2.35586047 -0.01114148 C4.97518228 -0.02220265 7.59446445 -0.02602627 10.21380615 -0.02983093 C12.08611681 -0.03609375 13.95842622 -0.04274039 15.83073425 -0.04974365 C20.92795923 -0.06717039 26.02517482 -0.07771 31.12242222 -0.08594918 C34.30550106 -0.09109585 37.48857697 -0.09717174 40.67165375 -0.10346031 C50.62635918 -0.12251716 60.58105716 -0.13674718 70.53577733 -0.14507228 C82.03492723 -0.15484714 93.53388475 -0.18117114 105.03296685 -0.22157317 C113.91540704 -0.25171288 122.79779202 -0.26653912 131.68028235 -0.26985329 C136.98797362 -0.27220626 142.2954595 -0.28119867 147.60309601 -0.30631447 C152.59684171 -0.32956259 157.59024631 -0.33384152 162.58403206 -0.32355309 C164.41661525 -0.32305682 166.24921504 -0.32940396 168.08174706 -0.34310913 C170.58477451 -0.36078086 173.08657161 -0.35374574 175.58959961 -0.34057617 C176.67609436 -0.35703004 176.67609436 -0.35703004 177.78453851 -0.37381631 C182.82295589 -0.30986444 185.65932352 1.00029811 189.54876709 4.14717102 C193.60507107 9.36976959 193.32274253 14.80057244 192.54876709 21.14717102 C190.37186364 25.74285608 188.08505178 27.95874536 183.54876709 30.14717102 C180.86506432 30.43215955 178.41696104 30.55708399 175.73677063 30.53485107 C174.9567734 30.54023661 174.17677617 30.54562215 173.37314266 30.55117089 C170.76298461 30.56546318 168.1533328 30.55834371 165.54315186 30.55122375 C163.67039584 30.55692666 161.79764329 30.56389061 159.92489624 30.57202148 C154.84019082 30.58997675 149.75565776 30.58878005 144.67093015 30.5830791 C140.42629149 30.57999069 136.18168611 30.58607583 131.93705219 30.59211785 C121.92372528 30.60616923 111.91048367 30.60459665 101.89715576 30.59321594 C91.56617976 30.58173369 81.23546332 30.59581086 70.90452152 30.62261242 C62.03474268 30.64476191 53.16504536 30.65140849 44.29524082 30.64553601 C38.99767813 30.64216349 33.70028183 30.64460114 28.40274239 30.66178703 C23.42123555 30.67724209 18.44011354 30.67331653 13.45862198 30.65448189 C11.6308862 30.65079204 9.80312199 30.65391599 7.97541237 30.66436768 C5.47907941 30.67755246 2.98402517 30.66605322 0.48774719 30.64837646 C-0.23453628 30.65798147 -0.95681976 30.66758648 -1.70099062 30.67748255 C-6.73068796 30.60426459 -9.56360421 29.28048254 -13.45123291 26.14717102 C-16.56274321 22.28460652 -17.60120522 18.06813732 -17.45123291 13.14717102 C-15.8510657 7.9021785 -13.56771284 4.73589712 -9.45123291 1.14717102 C-6.43217634 -0.36235727 -3.31189451 -0.00083271 0 0 Z " fill="#b3220d" transform="translate(182.45123291015625,179.8528289794922)"/>
<path d="M0 0 C0.77520811 -0.0060911 1.55041622 -0.01218221 2.34911549 -0.01845789 C4.94310842 -0.03508842 7.5366105 -0.03031207 10.13064575 -0.0255127 C11.9919282 -0.03285303 13.85320609 -0.04143915 15.71447754 -0.05117798 C20.76824957 -0.0734071 25.82185861 -0.07632394 30.87567282 -0.07443047 C35.095366 -0.07431082 39.31502458 -0.08287247 43.53470814 -0.09120798 C53.49053892 -0.1104473 63.44628585 -0.11332402 73.40213013 -0.10656738 C83.67064824 -0.09992672 93.93880713 -0.12279084 104.20725238 -0.15988111 C113.02524508 -0.19057584 121.84312221 -0.20193836 130.66116726 -0.1980443 C135.92695057 -0.19597648 141.1924544 -0.20146117 146.4581871 -0.22593689 C151.41103032 -0.24819745 156.36328953 -0.24633182 161.31613541 -0.22600937 C163.13216861 -0.22259805 164.94824108 -0.22769367 166.76422119 -0.24199295 C169.24730231 -0.26019337 171.72840384 -0.2474324 174.21142578 -0.22705078 C174.92690547 -0.23956863 175.64238516 -0.25208648 176.37954605 -0.26498365 C181.92209253 -0.16771632 185.25670799 1.76474645 189.23269653 5.39440918 C191.79654103 9.0435174 192.49882133 13.11246642 192.17019653 17.51940918 C190.95248681 22.55260939 189.23101433 25.87068985 185.077528 29.03772736 C181.49394846 30.74671338 178.35224082 30.81758298 174.46539307 30.78881836 C173.69018495 30.79490946 172.91497684 30.80100057 172.11627758 30.80727625 C169.52228465 30.82390678 166.92878256 30.81913043 164.33474731 30.81433105 C162.47346487 30.82167138 160.61218697 30.83025751 158.75091553 30.83999634 C153.6971435 30.86222546 148.64353445 30.8651423 143.58972025 30.86324883 C139.37002706 30.86312918 135.15036849 30.87169083 130.93068492 30.88002634 C120.97485415 30.89926566 111.01910722 30.90214238 101.06326294 30.89538574 C90.79474483 30.88874508 80.52658594 30.9116092 70.25814068 30.94869947 C61.44014799 30.9793942 52.62227086 30.99075672 43.8042258 30.98686266 C38.53844249 30.98479484 33.27293867 30.99027953 28.00720596 31.01475525 C23.05436274 31.03701581 18.10210353 31.03515018 13.14925766 31.01482773 C11.33322445 31.01141641 9.51715199 31.01651203 7.70117188 31.03081131 C5.21809075 31.04901172 2.73698922 31.03625076 0.25396729 31.01586914 C-0.81925225 31.03464591 -0.81925225 31.03464591 -1.91415298 31.05380201 C-7.45669946 30.95653468 -10.79131492 29.02407191 -14.76730347 25.39440918 C-17.33114796 21.74530096 -18.03342826 17.67635194 -17.70480347 13.26940918 C-16.48709374 8.23620897 -14.76562126 4.91812851 -10.61213493 1.751091 C-7.02855539 0.04210497 -3.88684775 -0.02876462 0 0 Z " fill="#b3220d" transform="translate(168.76730346679688,239.6055908203125)"/>
<path d="M0 0 C0.77183013 -0.00538554 1.54366025 -0.01077108 2.33887917 -0.01631981 C4.9213999 -0.03061075 7.50340889 -0.02349299 10.08595276 -0.01637268 C11.93900464 -0.02207566 13.79205301 -0.02903964 15.64509583 -0.03717041 C20.67608448 -0.05512489 25.70689895 -0.05392912 30.73791003 -0.04822803 C34.93781291 -0.0451395 39.13768217 -0.05122489 43.33758026 -0.05726677 C53.24543205 -0.0713179 63.15319762 -0.0697458 73.06105042 -0.05836487 C83.28296431 -0.04688266 93.50461588 -0.06095976 103.72649521 -0.08776134 C112.50285676 -0.10991136 121.27913593 -0.1165573 130.05552346 -0.11068493 C135.29719547 -0.10731253 140.53869931 -0.10974926 145.78034782 -0.12693596 C150.70932643 -0.14239185 155.63791611 -0.13846455 160.56687927 -0.11963081 C162.37526436 -0.11594119 164.18367818 -0.11906426 165.99203682 -0.1295166 C168.46210002 -0.14270299 170.93087123 -0.13120082 173.40087891 -0.11352539 C174.11538049 -0.1231304 174.82988207 -0.1327354 175.56603521 -0.14263147 C180.57283961 -0.06898575 183.39670856 1.26718821 187.26393127 4.38768005 C191.32023526 9.61027863 191.03790671 15.04108148 190.26393127 21.38768005 C188.08674456 25.98396312 185.79895673 28.19620483 181.26393127 30.38768005 C178.60476615 30.67254731 176.18338535 30.79762757 173.52786255 30.77536011 C172.75603242 30.78074565 171.9842023 30.78613118 171.18898338 30.79167992 C168.60646265 30.80597086 166.02445366 30.7988531 163.44190979 30.79173279 C161.58885791 30.79743577 159.73580954 30.80439975 157.88276672 30.81253052 C152.85177807 30.830485 147.8209636 30.82928923 142.78995252 30.82358813 C138.59004964 30.8204996 134.39018038 30.82658499 130.19028229 30.83262688 C120.2824305 30.84667801 110.37466493 30.8451059 100.46681213 30.83372498 C90.24489823 30.82224277 80.02324667 30.83631986 69.80136734 30.86312145 C61.02500579 30.88527147 52.24872662 30.89191741 43.47233909 30.88604504 C38.23066708 30.88267264 32.98916324 30.88510937 27.74751472 30.90229607 C22.81853612 30.91775195 17.88994644 30.91382466 12.96098328 30.89499092 C11.15259819 30.8913013 9.34418437 30.89442437 7.53582573 30.90487671 C5.06576253 30.91806309 2.59699131 30.90656093 0.12698364 30.8888855 C-0.58751794 30.8984905 -1.30201952 30.90809551 -2.03817266 30.91799158 C-7.04497706 30.84434586 -9.86884601 29.5081719 -13.73606873 26.38768005 C-17.79237271 21.16508148 -17.51004416 15.73427863 -16.73606873 9.38768005 C-13.12839148 1.77147253 -8.04965975 -0.06749915 0 0 Z " fill="#b3220d" transform="translate(196.73606872558594,119.61231994628906)"/>
</svg>
