<?xml version="1.0" encoding="UTF-8"?>
<svg version="1.1" xmlns="http://www.w3.org/2000/svg" width="768" height="768">
<path d="M0 0 C3.80887497 1.25565169 7.52612429 2.57859713 11.21875 4.14453125 C12.21777344 4.56734375 13.21679688 4.99015625 14.24609375 5.42578125 C15.31988281 5.88339844 16.39367187 6.34101563 17.5 6.8125 C18.63566406 7.29460937 19.77132813 7.77671875 20.94140625 8.2734375 C30.28093986 12.24705844 39.59414533 16.28066237 48.90237427 20.32696533 C57.72700582 24.1627042 66.57026558 27.9510511 75.4375 31.6875 C83.97891466 35.28672073 92.50035282 38.92813736 101 42.625 C101.98025146 43.05127686 102.96050293 43.47755371 103.97045898 43.91674805 C110.72010058 46.86005029 110.72010058 46.86005029 113 48 C113 112.35 113 176.7 113 243 C79.53081128 252.23287965 79.53081128 252.23287965 68.15234375 255.0703125 C66.82593324 255.40306827 65.49956443 255.73599031 64.17323303 256.06906128 C61.45159356 256.75164957 58.72934327 257.4317248 56.0065918 258.10986328 C53.29111242 258.7864309 50.57663606 259.46680839 47.86303711 260.15087891 C-8.24760541 274.29496017 -48.16973506 280.27542103 -99.81817627 249.49339294 C-101.69141903 248.3741815 -103.56362967 247.25326277 -105.43554688 246.13183594 C-109.64844543 243.60868898 -113.87993591 241.11744018 -118.11206055 238.62670898 C-125.63320599 234.19855734 -133.130765 229.7321986 -140.60864258 225.23144531 C-145.77711413 222.12427266 -150.97247961 219.06397958 -156.1730957 216.01098633 C-162.12205617 212.5185518 -168.06212952 209.01125324 -174 205.5 C-180.39114226 201.72113201 -186.7852873 197.94758006 -193.1875 194.1875 C-201.69861729 189.18725757 -210.19130974 184.15586674 -218.67797852 179.11425781 C-224.20873265 175.82998064 -229.74627146 172.55882444 -235.30859375 169.328125 C-236.29255127 168.75425049 -237.27650879 168.18037598 -238.2902832 167.58911133 C-240.10993317 166.52891565 -241.93245579 165.47362649 -243.75854492 164.42456055 C-259.00249552 155.52121185 -270.05695835 144.30843685 -274.8125 126.9375 C-277.77324805 113.78235811 -275.16786148 102.40611983 -268 91 C-261.04803809 82.20490228 -251.46329751 75.47246175 -240.3046875 73.25 C-224.34972352 71.51929204 -211.9762884 76.03423307 -197.3125 81.9375 C-194.84690989 82.91810022 -192.38087859 83.89749689 -189.9140625 84.875 C-189.27496445 85.12865829 -188.63586639 85.38231659 -187.97740173 85.6436615 C-180.40662567 88.64242003 -172.79713648 91.53913647 -165.1875 94.4375 C-162.29929747 95.53858647 -159.41130121 96.64021271 -156.5234375 97.7421875 C-155.81064636 98.01416962 -155.09785522 98.28615173 -154.36346436 98.56637573 C-147.00463272 101.37646349 -139.65746048 104.21639079 -132.3125 107.0625 C-131.05037671 107.55119424 -129.78825106 108.03988241 -128.52612305 108.52856445 C-122.54334234 110.84601835 -116.56286061 113.16923659 -110.58598328 115.50187683 C-107.74264075 116.61111321 -104.89839373 117.71801904 -102.05404663 118.82467651 C-100.70253341 119.3512701 -99.35146617 119.87900999 -98.00088501 120.4079895 C-96.12669868 121.14201758 -94.25087782 121.87186803 -92.375 122.6015625 C-91.31023437 123.01744629 -90.24546875 123.43333008 -89.1484375 123.86181641 C-85.81849296 125.06561615 -82.40461828 126.02725192 -79 127 C-74.38 122.38 -69.76 117.76 -65 113 C-66.36125 110.1125 -67.7225 107.225 -69.125 104.25 C-69.56706787 103.30858154 -70.00913574 102.36716309 -70.46459961 101.3972168 C-72.24256157 97.62796831 -74.03065689 93.87854422 -76.00390625 90.20703125 C-76.55949219 89.16933594 -77.11507812 88.13164062 -77.6875 87.0625 C-78.43580078 85.71865234 -78.43580078 85.71865234 -79.19921875 84.34765625 C-80 82 -80 82 -79.2501545 80.06840897 C-77.94735039 77.91289002 -76.58037071 76.33413157 -74.79830933 74.55780029 C-74.13925598 73.89599762 -73.48020264 73.23419495 -72.80117798 72.55233765 C-72.07901093 71.83736115 -71.35684387 71.12238464 -70.61279297 70.38574219 C-69.85172241 69.62437958 -69.09065186 68.86301697 -68.30651855 68.07858276 C-65.78978644 65.56324396 -63.26604416 63.05506339 -60.7421875 60.546875 C-58.99583128 58.80424889 -57.2499161 57.06118069 -55.50442505 55.31768799 C-50.90896304 50.72986252 -46.30752651 46.14807483 -41.70483398 41.56750488 C-37.00924536 36.89237414 -32.31931378 32.21157832 -27.62890625 27.53125 C-18.42480823 18.34860228 -9.21458132 9.1721273 0 0 Z " fill="#b21f1f" transform="translate(500,271)"/>
<path d="M0 0 C0.95692749 -0.0096579 1.91385498 -0.0193158 2.89978027 -0.02926636 C6.00484078 -0.05412916 9.10969432 -0.06667235 12.21484375 -0.07421875 C13.27057587 -0.07716949 14.32630798 -0.08012024 15.41403198 -0.0831604 C37.65128197 -0.09731309 58.4210048 2.44255286 80.15234375 7.23828125 C79.29571435 11.56699365 77.39025353 13.2115395 74.15234375 16.23828125 C72.98167483 17.40093189 71.81519573 18.56781233 70.65234375 19.73828125 C-97.34765625 187.73828125 -97.34765625 187.73828125 -99.1640625 189.55078125 C-100.54726678 190.93719482 -101.91798516 192.33605449 -103.28515625 193.73828125 C-104.13078125 194.56328125 -104.97640625 195.38828125 -105.84765625 196.23828125 C-106.36199219 196.76035156 -106.87632812 197.28242188 -107.40625 197.8203125 C-117.67892873 207.60697202 -131.36419135 213.8789125 -145.59375 214.32421875 C-155.39301783 213.74329492 -162.83053684 209.80722958 -170.03515625 203.3359375 C-172.13082063 200.9105673 -173.10160946 199.36890438 -173.84765625 196.23828125 C-172.45751953 193.29077148 -172.45751953 193.29077148 -170.16796875 190.046875 C-169.76238739 189.46092056 -169.35680603 188.87496613 -168.93893433 188.27125549 C-167.63371706 186.39360594 -166.30417639 184.53484389 -164.97265625 182.67578125 C-164.11417774 181.45236839 -163.25738862 180.22776822 -162.40234375 179.00195312 C-160.70596986 176.57288974 -159.00148784 174.14982291 -157.29199219 171.72998047 C-154.3638182 167.56834076 -151.55049888 163.33295034 -148.74169922 159.09008789 C-145.04919215 153.530385 -141.26178249 148.03492043 -137.4921875 142.52734375 C-134.2707584 137.8133867 -131.07224093 133.08604057 -127.91015625 128.33203125 C-123.06455623 121.04718156 -118.13265848 113.82193661 -113.203125 106.59375 C-108.37376504 99.50421427 -103.59525985 92.38278437 -98.84765625 85.23828125 C-93.53728709 77.24966719 -88.18595024 69.29105224 -82.78515625 61.36328125 C-81.67385884 59.73183866 -80.5625618 58.10039582 -79.45129395 56.46893311 C-78.69804276 55.36312134 -77.94470634 54.25736764 -77.19128418 53.15167236 C-74.67234177 49.45365926 -72.16239394 45.74966424 -69.65625 42.04296875 C-68.99310791 41.06440918 -68.32996582 40.08584961 -67.64672852 39.07763672 C-66.4065692 37.2475323 -65.16860577 35.41593698 -63.93334961 33.58251953 C-50.66222743 14.03122858 -36.44407515 5.4723546 -13.24560547 0.70336914 C-8.81910151 0.09749976 -4.46325004 0.03729473 0 0 Z " fill="#b21f1f" transform="translate(236.84765625,215.76171875)"/>
<path d="M0 0 C21.45 0 42.9 0 65 0 C65 84.81 65 169.62 65 257 C43.55 257 22.1 257 0 257 C0 172.19 0 87.38 0 0 Z " fill="#b21f1f" transform="translate(644,288)"/>
<path d="M0 0 C0.97696121 3.41757328 0.89089533 5.08694219 -0.375 8.4375 C-5.06180761 21.03055784 -3.10791233 32.25347035 2.02734375 44.4375 C13.93312967 68.16433316 41.73051869 79.15439733 65 88 C63.68904505 90.95311939 62.3658972 92.82764609 59.91015625 94.91796875 C59.29615967 95.44551758 58.68216309 95.97306641 58.04956055 96.51660156 C57.39383057 97.06799805 56.73810059 97.61939453 56.0625 98.1875 C55.38807861 98.76338867 54.71365723 99.33927734 54.01879883 99.93261719 C49.250882 103.98950406 44.40883092 107.95193598 39.54296875 111.890625 C36.9639924 114.02986806 34.47743647 116.24424937 32 118.5 C27.7771744 122.34436481 23.41355427 125.96525534 18.9765625 129.55859375 C15.65215635 132.28530483 12.38401965 135.07080022 9.125 137.875 C0.67260908 145.14500395 -7.78575697 152.4047966 -16.4375 159.4375 C-21.47972014 163.53662447 -26.41079406 167.75648241 -31.31811523 172.01538086 C-36.23521195 176.26537254 -39.1177753 178.22455896 -45.61108398 178.86962891 C-46.27809326 178.93819595 -46.94510254 179.006763 -47.63232422 179.07740784 C-49.8361842 179.30187491 -52.04102416 179.51433546 -54.24609375 179.7265625 C-55.7792883 179.87997045 -57.31241446 180.03406333 -58.84547424 180.18881226 C-62.05869491 180.51147025 -65.2723863 180.82870761 -68.48657227 181.14160156 C-72.60426435 181.54247213 -76.72100061 181.95226927 -80.83746243 182.36556435 C-84.76505372 182.75961497 -88.69303994 183.14965334 -92.62109375 183.5390625 C-93.36991758 183.61354237 -94.11874142 183.68802223 -94.89025688 183.76475906 C-97.013138 183.97507493 -99.13627264 184.18259374 -101.25952148 184.38916016 C-103.07129128 184.56664291 -103.07129128 184.56664291 -104.91966248 184.74771118 C-108 185 -108 185 -112 185 C-116.35507031 157.68100905 -121.78402557 123.18212513 -104.5847168 99.39551353 C-92.37251378 83.51423657 -77.12443295 70.025805 -62.11720276 56.8592602 C-55.19683096 50.77304644 -48.49793821 44.46162334 -41.80314636 38.12952316 C-28.08984449 25.16827965 -14.14101436 12.49248403 0 0 Z " fill="#000000" transform="translate(212,375)"/>
<path d="M0 0 C1.1964541 0.82042567 2.3815431 1.65741974 3.5625 2.5 C4.22378906 2.9640625 4.88507813 3.428125 5.56640625 3.90625 C7.6148767 5.66865796 9.21589726 7.35001786 10.95703125 9.39453125 C16.32938759 15.66023741 22.27146242 21.37691971 28.125 27.1875 C29.30362055 28.36109203 30.48200762 29.5349186 31.66015625 30.70898438 C33.8242462 32.86497675 35.98967604 35.01960277 38.15673828 37.17260742 C40.77669758 39.77621345 43.3894813 42.38692586 46 45 C46.6084375 45.6084375 47.216875 46.216875 47.84375 46.84375 C55.22916667 54.22916667 62.61458333 61.61458333 70 69 C70.61875 69.515625 71.2375 70.03125 71.875 70.5625 C73 72 73 72 73 73.875 C71.5638349 76.92685084 69.463508 78.69715556 67 81 C65.82933108 82.16265064 64.66285198 83.32953108 63.5 84.5 C40.66666667 107.33333333 17.83333333 130.16666667 -5 153 C-5.53367187 153.60328125 -6.06734375 154.2065625 -6.6171875 154.828125 C-7.19726562 155.46234375 -7.77734375 156.0965625 -8.375 156.75 C-8.89835937 157.34296875 -9.42171875 157.9359375 -9.9609375 158.546875 C-12.95678851 160.68184928 -15.3930573 161.35201446 -19 161 C-23.26880538 159.59939561 -27.26122396 157.68113623 -31.3125 155.75 C-33.11503439 154.92182514 -34.91759129 154.09369448 -36.72157288 153.26867676 C-38.58361694 152.415781 -40.44274729 151.55675013 -42.30175781 150.69726562 C-67.7115023 138.9932823 -91.25701982 128.72939522 -119.5625 136.125 C-122.60889292 136.90044547 -124.89971451 137.07419487 -128 137 C-123.3702787 130.27780897 -117.89166211 124.68698743 -112.0625 119 C-106.75384427 113.79775385 -101.53803087 108.60703804 -96.70043945 102.9609375 C-93.59279752 99.37722178 -90.31897033 95.9480274 -87.0625 92.5 C-86.39798828 91.79230469 -85.73347656 91.08460938 -85.04882812 90.35546875 C-81.0434866 86.10537793 -76.97006442 81.93902615 -72.80834961 77.84179688 C-70.95733107 75.95654186 -69.22099413 74.00407789 -67.5 72 C-64.48237647 68.48858352 -61.26640919 65.24692598 -57.96875 62 C-56.06013545 60.06108998 -54.27289448 58.06300449 -52.5 56 C-50.10323412 53.21103607 -47.62040609 50.58009215 -45 48 C-42.40017817 45.44009866 -39.93731602 42.8322046 -37.5625 40.0625 C-34.99334729 37.07198284 -32.30682744 34.26883316 -29.5 31.5 C-26.71378859 28.7514401 -24.04691608 25.97140209 -21.5 23 C-18.25675222 19.21621092 -14.76131837 15.74406957 -11.21484375 12.24609375 C-8.48497137 9.47770465 -5.93516797 6.5837072 -3.41015625 3.62890625 C-2.32370902 2.37392427 -1.17374345 1.17374345 0 0 Z " fill="#000000" transform="translate(388,199)"/>
<path d="M0 0 C5.10248962 2.93316769 8.49619009 6.82608277 12.26953125 11.25 C13.98568925 13.25897918 13.98568925 13.25897918 16.45703125 15.125 C18.79391285 16.99450528 20.52225242 18.85663861 22.45703125 21.125 C25.07790043 24.19402646 27.74060863 26.67036168 30.95703125 29.125 C33.76953125 31.75 33.76953125 31.75 35.95703125 34.125 C35.95703125 34.785 35.95703125 35.445 35.95703125 36.125 C36.61703125 36.125 37.27703125 36.125 37.95703125 36.125 C40.50819717 38.60239727 42.71211232 41.37081705 44.95703125 44.125 C45.59640625 44.888125 46.23578125 45.65125 46.89453125 46.4375 C49.25558855 52.40958612 48.76849335 58.93032999 46.33203125 64.8125 C42.50397726 72.1595429 36.94664131 78.44073289 31.70703125 84.8125 C21.93474768 96.67074589 21.93474768 96.67074589 12.95703125 109.125 C10.09347028 107.82505304 8.03476944 106.45121927 5.81854248 104.22702026 C5.22405304 103.63528015 4.6295636 103.04354004 4.01705933 102.43386841 C3.37688873 101.78650726 2.73671814 101.13914612 2.07714844 100.47216797 C1.39381439 99.78912598 0.71048035 99.10608398 0.00643921 98.40234375 C-2.24917851 96.14533362 -4.49763097 93.8813237 -6.74609375 91.6171875 C-8.30935767 90.05019314 -9.87306398 88.48364001 -11.43719482 86.91751099 C-15.5515532 82.79551858 -19.65986995 78.66755516 -23.76696777 74.53833008 C-27.95951041 70.32532416 -32.15772463 66.11797842 -36.35546875 61.91015625 C-44.59020403 53.6539751 -52.8185694 45.39147643 -61.04296875 37.125 C-59.64756426 34.22845825 -58.28704826 32.10436533 -56.03710938 29.796875 C-55.42887329 29.16942383 -54.82063721 28.54197266 -54.19396973 27.89550781 C-53.5357019 27.22874023 -52.87743408 26.56197266 -52.19921875 25.875 C-51.51549194 25.17987305 -50.83176514 24.48474609 -50.12731934 23.76855469 C-48.67756532 22.29992345 -47.22489234 20.83416877 -45.76953125 19.37109375 C-43.564622 17.14684319 -41.38200224 14.90218817 -39.19921875 12.65625 C-37.78388352 11.22784619 -36.36725619 9.80072126 -34.94921875 8.375 C-34.30714478 7.70823242 -33.6650708 7.04146484 -33.00354004 6.35449219 C-23.72889914 -2.83226817 -11.92016245 -6.01227108 0 0 Z " fill="#000000" transform="translate(473.04296875,139.875)"/>
</svg>
