<?xml version="1.0" standalone="no"?>
<!DOCTYPE svg PUBLIC "-//W3C//DTD SVG 20010904//EN"
 "http://www.w3.org/TR/2001/REC-SVG-20010904/DTD/svg10.dtd">
<svg version="1.0" xmlns="http://www.w3.org/2000/svg"
 width="512.000000pt" height="512.000000pt" viewBox="0 0 512.000000 512.000000"
 preserveAspectRatio="xMidYMid meet">

<g transform="translate(0.000000,512.000000) scale(0.100000,-0.100000)"
fill="#b21f1f" stroke="none">
<path d="M879 4767 c-71 -20 -153 -90 -182 -156 -7 -15 -14 -109 -17 -231 l-5
-205 -105 -6 c-58 -4 -124 -14 -148 -22 -114 -43 -215 -144 -264 -265 l-23
-57 -3 -1295 c-2 -901 1 -1311 8 -1347 28 -132 120 -247 249 -311 l75 -37
1352 -5 1353 -5 49 -70 c243 -344 687 -492 1092 -363 552 175 833 811 590
1334 -113 245 -334 445 -572 520 l-58 18 0 756 c0 824 1 816 -58 923 -32 59
-94 125 -148 159 -74 46 -126 61 -234 67 l-105 6 -5 205 c-6 233 -11 251 -92
327 -55 49 -104 68 -183 66 -72 -1 -122 -21 -176 -70 -78 -71 -84 -91 -87
-325 l-3 -208 -145 0 -144 0 0 183 c0 215 -10 261 -70 329 -98 112 -270 123
-387 24 -18 -15 -45 -53 -60 -84 -27 -56 -28 -62 -32 -254 l-3 -198 -138 0
-138 0 -4 198 c-4 172 -7 203 -25 243 -82 181 -323 219 -453 71 -60 -68 -70
-114 -70 -329 l0 -183 -144 0 -145 0 -3 208 c-3 234 -9 254 -87 325 -70 63
-165 87 -252 64z m150 -135 c14 -10 36 -34 49 -52 21 -32 22 -40 22 -279 0
-221 -2 -250 -19 -281 -55 -104 -211 -102 -269 3 -15 28 -17 63 -17 277 0 237
1 246 23 282 45 72 148 97 211 50z m821 6 c33 -17 51 -35 68 -68 21 -42 22
-56 22 -270 0 -214 -1 -228 -22 -270 -29 -56 -64 -81 -121 -87 -58 -7 -116 24
-146 77 -20 36 -21 52 -21 279 0 258 2 272 52 318 50 47 103 54 168 21z m850
-7 c14 -10 35 -33 48 -51 21 -32 22 -40 22 -278 0 -230 -1 -246 -21 -282 -55
-98 -186 -106 -255 -14 l-29 37 -3 241 c-3 234 -2 242 20 286 42 82 148 112
218 61z m816 8 c81 -39 84 -50 84 -341 0 -248 -1 -256 -22 -288 -28 -40 -81
-70 -126 -70 -47 0 -106 34 -131 74 -21 34 -22 44 -19 293 3 291 4 293 83 333
51 25 78 25 131 -1z m-2826 -624 c27 -98 121 -176 226 -190 131 -18 266 77
298 208 l7 28 145 -3 145 -3 19 -55 c25 -74 99 -143 177 -166 139 -40 281 33
332 171 l19 50 142 0 142 0 19 -50 c52 -140 193 -212 334 -171 77 23 157 100
178 172 l14 49 145 3 145 3 11 -38 c27 -92 99 -163 191 -189 139 -41 293 44
332 185 l12 44 81 -7 c45 -3 97 -10 116 -16 57 -16 126 -65 164 -117 56 -75
66 -123 66 -310 l0 -163 -1950 0 -1950 0 0 163 c0 194 11 244 73 319 70 85
161 124 303 127 l51 1 13 -45z m3460 -1197 l0 -523 -148 -1 c-120 0 -162 -4
-232 -23 -409 -109 -698 -455 -735 -877 -9 -101 9 -254 41 -354 13 -41 24 -78
24 -83 0 -4 -588 -6 -1308 -5 l-1307 3 -50 24 c-63 32 -124 93 -156 156 l-24
50 -3 1078 -2 1077 1950 0 1950 0 0 -522z m6 -649 c184 -32 326 -108 464 -248
136 -137 210 -281 239 -461 73 -450 -226 -885 -674 -981 -90 -19 -266 -17
-358 5 -347 79 -602 348 -663 698 -78 447 229 894 676 983 81 16 237 18 316 4z"/>
<path d="M595 3085 c-43 -23 -65 -45 -86 -87 -17 -33 -19 -60 -19 -224 0 -218
10 -254 83 -302 l41 -27 206 0 c202 0 207 1 242 24 19 13 46 40 59 59 23 34
24 43 27 228 4 222 -5 258 -74 310 l-37 29 -206 3 c-173 2 -211 0 -236 -13z
m414 -119 c20 -18 21 -29 21 -193 0 -228 15 -213 -210 -213 -225 0 -210 -15
-210 213 0 229 -12 217 221 214 139 -2 159 -4 178 -21z"/>
<path d="M1479 3071 c-74 -46 -83 -77 -87 -277 -4 -188 4 -235 45 -285 51 -60
87 -69 288 -69 203 0 241 10 288 72 37 48 47 103 47 263 0 157 -8 201 -41 250
-47 69 -72 75 -296 75 l-199 0 -45 -29z m410 -92 c19 -7 36 -22 42 -36 5 -13
9 -93 9 -177 0 -140 -2 -156 -21 -180 l-20 -26 -174 0 -174 0 -20 26 c-19 25
-21 40 -21 188 0 174 7 200 53 209 49 10 296 6 326 -4z"/>
<path d="M2401 3083 c-19 -10 -48 -35 -65 -56 l-31 -39 -3 -200 c-3 -188 -2
-202 19 -244 13 -28 37 -56 62 -72 40 -26 45 -27 220 -30 118 -3 195 0 223 8
46 13 106 68 123 113 6 16 11 106 11 210 0 208 -9 243 -76 293 l-37 29 -206 3
c-181 2 -210 0 -240 -15z m418 -117 c20 -18 21 -29 21 -193 0 -228 15 -213
-208 -213 -229 0 -212 -16 -212 209 0 233 -12 221 221 218 139 -2 159 -4 178
-21z"/>
<path d="M3298 3080 c-80 -43 -98 -98 -98 -304 0 -177 8 -220 47 -267 51 -60
87 -69 288 -69 206 0 241 9 291 76 l29 37 3 201 c2 110 1 210 -3 223 -7 30
-61 90 -96 109 -22 11 -72 14 -226 14 -176 -1 -202 -3 -235 -20z m399 -100
c46 -17 53 -44 53 -216 0 -151 -1 -156 -25 -179 -24 -25 -27 -25 -191 -25
-226 0 -214 -12 -214 210 0 178 6 204 53 213 47 9 296 6 324 -3z"/>
<path d="M595 2081 c-92 -42 -105 -82 -105 -316 0 -152 3 -192 16 -218 23 -45
44 -66 86 -88 33 -17 60 -19 225 -19 208 0 247 9 291 65 38 48 44 90 40 286
-3 182 -4 186 -30 226 -48 73 -85 83 -299 83 -157 0 -190 -3 -224 -19z m415
-121 c18 -18 20 -33 20 -192 0 -145 -3 -174 -17 -190 -14 -16 -34 -18 -191
-18 -149 0 -178 2 -194 17 -16 14 -18 34 -18 191 0 149 2 178 17 194 14 16 34
18 190 18 160 0 175 -2 193 -20z"/>
<path d="M1505 2086 c-41 -18 -92 -77 -104 -123 -6 -21 -11 -108 -11 -193 0
-85 5 -172 11 -193 13 -47 63 -106 106 -123 46 -20 390 -20 436 0 39 16 94 76
104 114 10 35 10 369 1 404 -12 40 -57 89 -103 109 -34 16 -67 19 -225 18
-131 0 -194 -4 -215 -13z m414 -132 c19 -24 21 -40 21 -181 0 -149 -6 -187
-34 -205 -6 -4 -89 -8 -183 -8 -228 0 -213 -15 -213 208 0 226 -14 212 215
212 l174 0 20 -26z"/>
<path d="M2410 2084 c-45 -20 -68 -41 -91 -86 -17 -33 -19 -61 -19 -228 0
-156 3 -197 16 -223 23 -45 44 -66 86 -88 33 -17 60 -19 225 -19 220 0 252 9
300 81 l28 43 0 206 0 206 -27 41 c-48 73 -85 83 -299 83 -141 -1 -192 -4
-219 -16z m410 -124 c18 -18 20 -33 20 -188 0 -228 16 -212 -207 -212 -150 0
-179 2 -195 17 -16 14 -18 34 -18 191 0 149 2 178 17 194 14 16 34 18 190 18
160 0 175 -2 193 -20z"/>
<path d="M3590 1933 c-40 -14 -53 -69 -22 -96 16 -15 49 -17 254 -17 l235 0
31 -69 c17 -38 34 -81 38 -95 l6 -26 -274 0 c-254 0 -276 -1 -291 -18 -21 -23
-22 -52 -3 -78 14 -18 31 -19 306 -22 l292 -3 -7 -37 c-11 -61 -37 -95 -96
-124 -81 -41 -185 -54 -326 -39 -105 12 -116 11 -134 -5 -25 -23 -24 -57 4
-88 12 -13 143 -133 291 -265 178 -161 275 -241 290 -241 28 0 52 19 60 47 9
29 -14 54 -237 253 l-185 165 42 7 c22 3 74 11 114 17 41 6 98 23 127 37 90
42 165 143 165 222 0 46 9 52 79 52 83 0 115 15 119 56 5 52 -17 64 -117 64
l-88 0 -34 88 c-19 48 -35 90 -37 95 -2 4 52 7 121 7 136 0 157 8 157 63 0 56
-5 57 -455 56 -225 0 -417 -3 -425 -6z"/>
</g>
</svg>
